<?xml version="1.0" encoding="UTF-8" standalone="no"?>
<!DOCTYPE svg PUBLIC "-//W3C//DTD SVG 1.1//EN" "http://www.w3.org/Graphics/SVG/1.1/DTD/svg11.dtd">
<svg width="100%" height="100%" viewBox="0 0 399 399" version="1.1" xmlns="http://www.w3.org/2000/svg" xmlns:xlink="http://www.w3.org/1999/xlink" xml:space="preserve" xmlns:serif="http://www.serif.com/" style="fill-rule:evenodd;clip-rule:evenodd;stroke-linejoin:round;stroke-miterlimit:2;">
    <g transform="matrix(1,0,0,1,-1624.91,-559.654)">
        <g transform="matrix(1.44177,0,0,2.05731,391.331,-650.985)">
            <path d="M924.736,709.58L924.736,709.58C906.4,709.58 888.816,704.476 875.851,695.39C862.886,686.304 855.602,673.981 855.602,661.131L855.602,636.907C855.602,624.057 862.886,611.734 875.851,602.648C888.816,593.562 906.4,588.458 924.736,588.458L924.736,588.458L924.736,709.58ZM947.78,588.458L982.347,588.458L982.347,636.907L947.78,636.907L947.78,588.458ZM1005.39,588.458L1039.96,588.458L1039.96,636.907L1005.39,636.907L1005.39,588.458ZM1063,588.458L1132.14,588.458L1132.14,588.458C1132.14,601.307 1124.85,613.63 1111.89,622.716C1098.92,631.802 1081.34,636.907 1063,636.907L1063,636.907L1063,588.458ZM947.78,661.131L1039.96,661.131L1039.96,709.58L947.78,709.58L947.78,661.131ZM1063,661.131L1063,661.131C1081.34,661.131 1098.92,666.236 1111.89,675.321C1124.85,684.407 1132.14,696.731 1132.14,709.58L1132.14,733.805C1132.14,746.654 1124.85,758.977 1111.89,768.063C1098.92,777.149 1081.34,782.254 1063,782.254L1063,782.254L1063,661.131ZM1039.96,782.254L1005.39,782.254L1005.39,733.805L1039.96,733.805L1039.96,782.254ZM982.347,782.254L947.78,782.254L947.78,733.805L982.347,733.805L982.347,782.254ZM924.736,782.254L855.602,782.254L855.602,782.253C855.602,769.404 862.886,757.081 875.851,747.995C888.816,738.909 906.4,733.805 924.736,733.805L924.736,733.805L924.736,782.254Z" style="fill:rgb(240,81,57);"/>
        </g>
    </g>
</svg>
